<svg width="80" height="80" viewBox="0 0 80 80" fill="none" xmlns="http://www.w3.org/2000/svg">
<g clip-path="url(#clip0_692_2401)">
<rect width="80" height="80" fill="#F68221"/>
<path d="M23.3318 74.8693C17.446 75.3493 12.3673 74.4403 8.09579 72.1425C3.82426 69.8447 0.642628 66.4514 -1.44909 61.9626L8.18309 55.2235C11.0245 61.1468 15.8739 63.8289 22.7311 63.2698C25.9312 63.0089 28.2846 62.2417 29.7914 60.9684C31.2983 59.6951 31.9725 58.0869 31.8141 56.1441C31.6417 54.0297 30.566 52.478 28.5871 51.4889C26.6035 50.4427 23.1272 49.4318 18.1581 48.4564C12.7705 47.2851 8.4761 45.7657 5.27509 43.8983C1.2753 41.4058 -0.945922 37.4452 -1.38857 32.0166C-1.83587 26.5308 -0.273341 22.0604 3.29902 18.6053C6.86206 15.0359 11.3865 13.0276 16.8723 12.5803C21.6723 12.1889 26.0251 13.0132 29.9304 15.0532C33.8358 17.0933 36.9918 20.1723 39.3984 24.2903L29.9237 30.844C27.1043 25.8968 23.066 23.6375 17.8088 24.0661C15.4088 24.2618 13.5411 24.9894 12.2057 26.2487C10.8656 27.4509 10.2678 28.9378 10.4122 30.7092C10.566 32.595 11.4632 34.0749 13.104 35.1492C14.9161 36.2094 18.0472 37.2196 22.4973 38.1798L26.7235 39.2158C27.485 39.3838 28.8103 39.7647 30.6995 40.3584C32.4651 40.8472 33.7712 41.3447 34.6178 41.8509C37.5576 43.3369 39.5878 44.9546 40.7083 46.704C42.3897 48.9829 43.3632 51.7509 43.6288 55.0081C44.0808 60.5511 42.411 65.1165 38.6194 68.7046C34.8277 72.2926 29.7319 74.3475 23.3318 74.8693ZM71.4631 70.9448C65.5773 71.4247 60.4986 70.5158 56.2271 68.218C51.9555 65.9202 48.7739 62.5269 46.6822 58.038L56.3144 51.2989C59.1558 57.2223 64.0052 59.9044 70.8624 59.3452C74.0624 59.0843 76.4159 58.3172 77.9227 57.0438C79.4296 55.7705 80.1038 54.1624 79.9453 52.2195C79.7729 50.1052 78.6973 48.5535 76.7184 47.5644C74.7348 46.5181 71.2585 45.5073 66.2894 44.5319C60.9017 43.3605 56.6074 41.8412 53.4064 39.9738C49.4066 37.4813 47.1854 33.5207 46.7427 28.092C46.2954 22.6062 47.8579 18.1358 51.4303 14.6807C54.9933 11.1114 59.5178 9.10302 65.0035 8.65571C69.8036 8.26432 74.1563 9.08864 78.0617 11.1287C81.9671 13.1687 85.1231 16.2477 87.5297 20.3658L78.055 26.9195C75.2356 21.9722 71.1973 19.7129 65.9401 20.1416C63.5401 20.3373 61.6723 21.0648 60.3369 22.3242C58.9969 23.5264 58.3991 25.0132 58.5435 26.7847C58.6973 28.6704 59.5945 30.1504 61.2352 31.2246C63.0474 32.2848 66.1785 33.2951 70.6286 34.2552L74.8548 35.2912C75.6163 35.4592 76.9416 35.8401 78.8308 36.4339C80.5963 36.9227 81.9024 37.4202 82.749 37.9264C85.6889 39.4124 87.719 41.0301 88.8396 42.7795C90.521 45.0584 91.4945 47.8264 91.7601 51.0836C92.2121 56.6265 90.5422 61.192 86.7506 64.78C82.959 68.368 77.8632 70.4229 71.4631 70.9448Z" fill="#D9D9D9" fill-opacity="0.2"/>
<g filter="url(#filter0_d_692_2401)">
<path fill-rule="evenodd" clip-rule="evenodd" d="M26.81 80.4124C24.1502 76.4228 18.8308 63.3568 18.8308 43.0097C18.8308 17.5759 32.2957 13.0876 41.2724 13.0876C49.3122 13.0876 51.3679 16.3396 51.7095 19.8847C51.7493 20.2978 51.7658 20.7149 51.7658 21.1313C51.9995 21.4117 52.2038 21.6915 52.3849 21.9717C53.1007 23.0792 53.4542 24.1923 53.8278 25.3683C54.3682 27.0698 54.9504 28.9028 56.7321 31.0409C57.3865 31.8261 58.2127 32.6114 59.0483 33.4057C61.3967 35.638 63.82 37.9415 62.7166 40.5162C62.5145 40.9876 62.1251 41.3202 61.6124 41.4202C61.3053 41.48 60.954 41.4564 60.5723 41.3292C60.2426 41.6962 59.8684 41.932 59.4564 42.0615C58.4733 42.3705 57.2753 42.0736 55.9536 41.5079C54.3466 40.8202 52.6696 40.8083 50.9813 40.7965C50.6949 40.7944 50.4081 40.7924 50.1213 40.7871C49.7735 40.7806 49.4256 40.7693 49.0782 40.7473C48.9897 41.0323 48.7695 41.3789 48.3807 41.7411C47.8489 42.2366 47.0019 42.7614 45.7451 43.1987C45.4372 43.3058 45.1048 43.4076 44.7464 43.5025C44.7464 43.8604 44.7436 44.22 44.7396 44.5816C44.7367 44.8385 44.7332 45.0964 44.7297 45.3554C44.6643 50.2181 44.5939 55.4484 48.4235 61.4465C51.1922 65.7831 55.3191 68.9684 59.1473 71.9231C61.9177 74.0615 64.5317 76.079 66.3613 78.3248C66.909 78.9971 67.3863 79.6898 67.7766 80.4124H26.81ZM46.8233 45.0273C46.8219 45.1512 46.8204 45.275 46.8189 45.3986C46.7605 50.2499 46.7049 54.8754 50.183 60.3231C52.6451 64.1794 56.317 67.0995 60.08 70.0059C60.2497 70.1369 60.4201 70.2683 60.5911 70.4001C64.0401 73.0588 67.7023 75.8819 69.6134 79.4204C69.9628 80.0673 69.9461 80.8503 69.5695 81.4818C69.1929 82.1132 68.5118 82.5 67.7766 82.5H26.81C26.112 82.5 25.4602 82.1512 25.073 81.5704C22.1295 77.1552 16.7432 63.6569 16.7432 43.0097C16.7432 29.9384 20.209 21.826 25.2409 17.0038C30.2538 12.1998 36.4692 11 41.2724 11C46.019 11 49.3044 12.0651 51.3668 14.1426C53.217 16.0062 53.7449 18.3458 53.8374 20.3988C54.9267 21.9146 55.4027 23.4218 55.8078 24.7048C55.8475 24.8304 55.8865 24.9538 55.9253 25.0749C56.4087 26.5832 56.9272 28.014 58.3359 29.7044C58.869 30.3442 59.5589 31.0105 60.3681 31.7801C60.4136 31.8233 60.4594 31.8668 60.5055 31.9107C61.2448 32.6132 62.0722 33.3994 62.7876 34.2124C64.2216 35.8419 65.9076 38.37 64.6354 41.3386C64.2741 42.1816 63.6088 42.8894 62.6996 43.2634C62.2066 43.4662 61.6917 43.5511 61.1791 43.5377C60.3608 44.0683 59.4417 44.2853 58.5198 44.2731C57.3282 44.2573 56.1517 43.8635 55.1322 43.4271C54.3565 43.0952 53.5021 42.9618 52.4611 42.9135C51.9811 42.8912 51.4961 42.8878 50.9612 42.884C50.9099 42.8836 50.8581 42.8832 50.8059 42.8828C50.6056 42.8813 50.3988 42.8796 50.1872 42.8761C49.879 43.2235 49.5175 43.5401 49.125 43.8222C48.5038 44.2684 47.7401 44.6769 46.8233 45.0273Z" fill="white"/>
<path d="M37.7524 20.3262C38.8491 21.3933 38.3307 22.9783 37.6327 23.5765C36.9348 24.1747 34.98 24.2232 34.4024 22.8786C33.7643 21.3933 33.5648 20.0271 34.7413 19.4288C35.6605 18.9615 37.0749 19.667 37.7524 20.3262Z" fill="white"/>
<path fill-rule="evenodd" clip-rule="evenodd" d="M18.8301 43.0095C18.8301 63.3566 24.1496 76.4226 26.8093 80.4122H67.7759C64.2807 73.9407 53.7951 69.8608 48.4228 61.4464C44.1023 54.6793 44.7458 48.8895 44.7458 43.5023C47.6375 42.7369 48.8382 41.5174 49.0776 40.7471C46.9525 40.6121 44.3876 40.1643 42.0582 39.5092C42.7619 38.8298 42.7226 37.3773 42.2691 36.5264C42.004 36.1908 41.4213 35.2933 41.2115 34.3887C41.9162 33.4546 42.0473 30.4884 42.1784 29.2266C42.3686 27.3956 42.9814 27.4403 43.1289 25.8835C43.2764 24.3267 42.5553 22.311 43.5058 21.3933C44.6038 21.72 46.0484 22.066 47.0619 21.9177C47.7338 21.8194 48.3073 21.1639 49.6511 20.8525C50.7262 20.6034 51.495 20.807 51.7651 21.1311C51.7651 17.1415 50.2483 13.0874 41.2717 13.0874C32.295 13.0874 18.8301 17.5757 18.8301 43.0095ZM37.6327 23.5765C38.3307 22.9783 38.8491 21.3933 37.7524 20.3262C37.0749 19.667 35.6605 18.9615 34.7413 19.4288C33.5648 20.0271 33.7643 21.3933 34.4024 22.8786C34.98 24.2232 36.9348 24.1747 37.6327 23.5765Z" fill="white"/>
<path d="M37.7526 20.3269C38.8494 21.394 38.3309 22.979 37.633 23.5772C36.9351 24.1754 34.9803 24.2239 34.4026 22.8793C33.7645 21.394 33.5651 20.0278 34.7416 19.4295C35.6607 18.9622 37.0752 19.6677 37.7526 20.3269Z" fill="#333333"/>
<path fill-rule="evenodd" clip-rule="evenodd" d="M35.9251 20.1647C35.9856 20.3572 35.8785 20.5622 35.686 20.6227C35.5841 20.6547 35.4673 20.759 35.3867 20.9517C35.3075 21.1408 35.287 21.3645 35.3329 21.5506C35.3812 21.7465 35.2616 21.9445 35.0657 21.9928C34.8698 22.0411 34.6718 21.9214 34.6235 21.7255C34.537 21.3746 34.5782 20.9909 34.7126 20.6697C34.8456 20.3519 35.0942 20.0427 35.4671 19.9256C35.6596 19.8651 35.8647 19.9722 35.9251 20.1647Z" fill="white"/>
<path d="M52.2924 32.9583C52.5835 32.4002 52.4788 31.8179 51.2015 30.763C50.3288 30.0423 49.922 29.8203 49.4372 30.359C48.9524 30.8977 49.711 31.7366 50.2587 32.231L50.2689 32.2402C51.1144 33.0033 51.7607 33.5866 52.2924 32.9583Z" fill="#F68221"/>
<path d="M52.2924 32.9583C52.5835 32.4002 52.4788 31.8179 51.2015 30.763C50.3288 30.0423 49.922 29.8203 49.4372 30.359C48.9524 30.8977 49.711 31.7366 50.2587 32.231L50.2689 32.2402C51.1144 33.0033 51.7607 33.5866 52.2924 32.9583Z" fill="#333333" fill-opacity="0.2"/>
<path d="M60.573 41.3292C59.1537 40.8561 55.6474 39.8006 51.4012 37.4955C49.1836 36.2917 43.9328 36.3604 42.2705 36.5266C42.724 37.3775 42.7632 38.83 42.0596 39.5094C44.3889 40.1645 46.9539 40.6123 49.0789 40.7473C51.4012 40.8948 53.744 40.562 55.9543 41.5079C57.8298 42.3106 59.4562 42.5722 60.573 41.3292Z" fill="#F68221"/>
<path fill-rule="evenodd" clip-rule="evenodd" d="M56.7319 31.0409C53.4072 27.0513 54.259 24.1236 51.7655 21.1313C51.4954 20.8072 50.7266 20.6037 49.6515 20.8527C48.3077 21.1641 47.7342 21.8196 47.0623 21.9179C46.0488 22.0663 44.6041 21.7202 43.5062 21.3935C42.5557 22.3112 43.2768 24.3269 43.1293 25.8837C42.9818 27.4406 42.369 27.3958 42.1788 29.2268C42.0477 30.4887 41.9166 33.4548 41.2119 34.3889C41.4217 35.2935 42.0044 36.191 42.2695 36.5266C43.9318 36.3604 49.1827 36.2917 51.4002 37.4955C55.6464 39.8006 59.1527 40.8561 60.572 41.3292C61.5911 41.6689 62.3933 41.27 62.7163 40.5162C64.2124 37.0253 59.2254 34.0331 56.7319 31.0409ZM51.2013 30.7627C52.4786 31.8175 52.5833 32.3998 52.2922 32.9579C51.7605 33.5862 51.1142 33.003 50.2687 32.2398L50.2585 32.2306C49.7107 31.7362 48.9522 30.8973 49.437 30.3586C49.9218 29.8199 50.3286 30.0419 51.2013 30.7627Z" fill="#F68221"/>
<path fill-rule="evenodd" clip-rule="evenodd" d="M27.0462 18.8875C22.6937 23.0586 19.3524 30.3812 19.3524 43.0095C19.3524 63.2815 24.6552 76.2394 27.244 80.1226C27.4039 80.3625 27.3391 80.6865 27.0992 80.8464C26.8594 81.0063 26.5354 80.9415 26.3755 80.7016C23.6448 76.6056 18.3086 63.4315 18.3086 43.0095C18.3086 30.2039 21.6997 22.5655 26.3239 18.1339C30.9434 13.7069 36.7051 12.5654 41.2721 12.5654C45.825 12.5654 48.6139 13.5918 50.2554 15.2454C51.85 16.8516 52.2627 18.95 52.2863 20.9438C53.4225 22.3646 53.8721 23.782 54.3217 25.1996C54.359 25.3172 54.3963 25.4349 54.434 25.5525C54.9406 27.1331 55.5339 28.7878 57.1328 30.7065C57.7336 31.4275 58.4905 32.1551 59.2889 32.9144C59.3301 32.9536 59.3715 32.9929 59.4129 33.0322C60.1646 33.7467 60.9444 34.4879 61.612 35.2465C62.999 36.8227 64.0751 38.6703 63.196 40.7215C62.9845 41.2149 62.6073 41.608 62.1037 41.8151C61.6903 41.9852 61.2203 42.0186 60.7282 41.9123C60.0994 42.4878 59.3484 42.718 58.5403 42.7073C57.6569 42.6955 56.7062 42.3975 55.748 41.9875C54.7252 41.5497 53.6579 41.4014 52.5335 41.3492C52.021 41.3254 51.5052 41.3218 50.9762 41.3181C50.9234 41.3177 50.8704 41.3173 50.8173 41.3169C50.3552 41.3135 49.8839 41.3084 49.4099 41.2874C49.1789 41.7069 48.7794 42.1421 48.2112 42.5503C47.5239 43.0441 46.5621 43.5194 45.267 43.8988C45.2646 44.3861 45.2582 44.8751 45.2518 45.3663C45.1881 50.2262 45.1215 55.3051 48.8631 61.1654C51.4932 65.2849 55.3845 68.3576 59.1227 71.2447C59.2538 71.346 59.3848 71.4471 59.5156 71.548C63.0718 74.2921 66.4877 76.9279 68.2355 80.1641C68.3725 80.4177 68.278 80.7344 68.0243 80.8713C67.7707 81.0083 67.4541 80.9138 67.3171 80.6601C65.6771 77.6235 62.4206 75.1095 58.7723 72.2929C58.6767 72.2191 58.5808 72.1451 58.4846 72.0708C54.7631 69.1965 50.7255 66.022 47.9833 61.7271C44.0656 55.591 44.14 50.2091 44.2072 45.3438C44.2127 44.9481 44.2181 44.5558 44.2213 44.1667C42.426 44.5659 40.0979 44.7951 37.1161 44.7057C36.828 44.697 36.6014 44.4565 36.6101 44.1683C36.6187 43.8802 36.8593 43.6537 37.1474 43.6623C40.4329 43.7609 42.859 43.4619 44.6126 42.9977C46.0116 42.6274 46.9732 42.1545 47.6022 41.7026C47.8488 41.5255 48.0396 41.3551 48.1853 41.1989C46.2115 41.0093 43.9733 40.5898 41.9173 40.0115C41.7374 39.9609 41.5982 39.8179 41.5525 39.6367C41.5069 39.4554 41.5616 39.2635 41.6961 39.1337C41.9143 38.923 42.0579 38.5435 42.0765 38.0619C42.0942 37.6047 41.9944 37.1405 41.8281 36.8088C41.5261 36.4147 40.9292 35.4799 40.7035 34.5065C40.6686 34.356 40.7022 34.1977 40.7953 34.0743C40.9086 33.9242 41.0283 33.6444 41.1373 33.232C41.2429 32.8325 41.326 32.3585 41.3932 31.8606C41.4843 31.1866 41.5416 30.5127 41.5902 29.9406C41.6145 29.655 41.6366 29.3948 41.6597 29.1726C41.7629 28.1796 41.9872 27.6743 42.1985 27.2287C42.2056 27.2137 42.2126 27.1988 42.2196 27.1841C42.3983 26.8079 42.5472 26.4944 42.6097 25.8342C42.6423 25.4906 42.6278 25.1086 42.5963 24.6936C42.5853 24.5484 42.5717 24.394 42.5578 24.2365C42.5339 23.9659 42.5092 23.6858 42.4954 23.4262C42.453 22.6237 42.4813 21.6573 43.1437 21.0178C43.2791 20.887 43.4746 20.8393 43.655 20.893C44.1943 21.0535 44.8084 21.2155 45.4054 21.3194C46.0098 21.4246 46.5607 21.4636 46.9867 21.4012C47.1859 21.3721 47.3759 21.2683 47.7392 21.0699C47.7762 21.0498 47.8149 21.0286 47.8555 21.0065C48.2671 20.7826 48.7945 20.5153 49.5337 20.344C50.126 20.2068 50.6571 20.1886 51.0965 20.262C51.1372 20.2689 51.1777 20.2766 51.2178 20.2852C51.1137 18.6606 50.6736 17.1482 49.5147 15.9808C48.1537 14.6099 45.6958 13.6092 41.2721 13.6092C36.8625 13.6092 31.4033 14.7119 27.0462 18.8875ZM43.002 36.9959C43.0929 37.3519 43.1338 37.7331 43.1195 38.1022C43.1055 38.4637 43.0369 38.8448 42.8885 39.1925C44.9939 39.7372 47.2326 40.1068 49.1111 40.2261C49.6754 40.262 50.2441 40.2688 50.825 40.2732C50.8784 40.2736 50.932 40.2739 50.9856 40.2743C51.5112 40.278 52.0477 40.2818 52.5818 40.3066C53.7619 40.3613 54.9712 40.5196 56.1587 41.0279C57.076 41.4204 57.8762 41.6546 58.5541 41.6636C58.8809 41.6679 59.1782 41.6204 59.4494 41.5094C57.6973 40.9293 54.6749 39.8667 51.1513 37.9539C50.1538 37.4124 48.3921 37.1304 46.5941 37.0179C45.2271 36.9323 43.9032 36.9476 43.002 36.9959ZM42.5178 35.9809C43.4493 35.9104 45.0278 35.874 46.6593 35.9761C48.4566 36.0886 50.4292 36.3742 51.6493 37.0366C55.4691 39.1102 58.68 40.1603 60.3013 40.6905C60.4626 40.7433 60.6082 40.7909 60.7371 40.8338C61.1483 40.9709 61.4726 40.9461 61.7067 40.8498C61.9397 40.7539 62.125 40.5707 62.2366 40.3104C62.8536 38.8707 62.1842 37.4767 60.8284 35.9361C60.1927 35.2137 59.4442 34.5021 58.6826 33.7782C58.645 33.7424 58.6073 33.7066 58.5696 33.6708C57.7784 32.9183 56.9769 32.1499 56.3309 31.3747C54.6052 29.3038 53.9621 27.4999 53.44 25.8711C53.4042 25.7592 53.3689 25.6485 53.3341 25.5389C52.8625 24.0562 52.4542 22.7727 51.3646 21.4652C51.3412 21.4371 51.2211 21.3412 50.9243 21.2915C50.6429 21.2445 50.2521 21.249 49.7693 21.3609C49.1648 21.501 48.7335 21.7171 48.3544 21.9234C48.3129 21.946 48.2705 21.9694 48.2272 21.9934C47.9059 22.1713 47.5366 22.3757 47.1379 22.434C46.5504 22.52 45.8722 22.4601 45.2264 22.3477C44.7037 22.2567 44.1783 22.1269 43.7029 21.9935C43.5481 22.2905 43.5041 22.7341 43.5378 23.3711C43.5508 23.6171 43.5723 23.8588 43.5948 24.1123C43.6091 24.2736 43.6239 24.4397 43.6371 24.6147C43.6697 25.0441 43.69 25.4979 43.6488 25.9327C43.569 26.7757 43.3585 27.2191 43.1611 27.6348C43.1546 27.6484 43.1481 27.6621 43.1417 27.6757C42.9621 28.0546 42.785 28.4424 42.6979 29.2804C42.6783 29.4694 42.6577 29.7099 42.6345 29.9829C42.5845 30.5685 42.5218 31.3035 42.4277 32.0003C42.3577 32.5185 42.2677 33.04 42.1464 33.4988C42.0545 33.8466 41.9364 34.1916 41.7754 34.477C41.9502 35.0595 42.2797 35.6313 42.5178 35.9809ZM50.9177 29.8869C51.108 30.0154 51.313 30.1777 51.5336 30.36C52.1887 30.901 52.6143 31.3752 52.8143 31.8399C53.0367 32.3567 52.9592 32.8073 52.7549 33.199C52.737 33.2332 52.7155 33.2653 52.6906 33.2947C52.4954 33.5253 52.2481 33.69 51.9462 33.7342C51.6562 33.7767 51.3895 33.6968 51.1694 33.5895C50.7683 33.394 50.3491 33.0154 49.9611 32.6649C49.947 32.6522 49.933 32.6395 49.919 32.6269L49.919 32.6269L49.9089 32.6178C49.9089 32.6178 49.9089 32.6178 49.9089 32.6178C49.6249 32.3615 49.249 31.9844 49.0097 31.5738C48.7816 31.1825 48.5674 30.5444 49.0491 30.0092C49.2033 29.8379 49.3875 29.6857 49.6159 29.6025C49.8558 29.5151 50.0941 29.522 50.3183 29.5866C50.5298 29.6476 50.73 29.7601 50.9177 29.8869ZM50.6083 31.8429L50.6184 31.8521C50.6184 31.8521 50.6184 31.8521 50.6184 31.8521C51.0643 32.2545 51.3751 32.5285 51.6268 32.6512C51.7405 32.7067 51.7879 32.7024 51.795 32.7014C51.7978 32.701 51.8037 32.7001 51.8161 32.6925C51.8248 32.6872 51.8386 32.6775 51.8567 32.6602C51.9187 32.5214 51.9232 32.4097 51.8556 32.2526C51.7567 32.023 51.4912 31.6787 50.869 31.1648C50.6533 30.9866 50.4801 30.851 50.3335 30.7519C50.1844 30.6512 50.0889 30.6068 50.0291 30.5895C49.9819 30.5759 49.9731 30.5832 49.9731 30.5832C49.9617 30.5874 49.9132 30.6094 49.8249 30.7075C49.8248 30.7076 49.8246 30.7078 49.8243 30.7081C49.8162 30.7153 49.751 30.7728 49.9115 31.0481C50.0671 31.3152 50.3444 31.6048 50.6082 31.8429L50.6083 31.8429Z" fill="#333333"/>
<path d="M57.9336 36.0087C58.8786 34.1665 61.378 35.7924 62.5096 36.8356L63.366 38.9908L62.5096 41.4414L60.7088 41.7071L57.9336 42.5633L54.0953 41.2052L47.2751 40.6738L42.374 39.5813L42.11 36.0087C44.1768 35.5757 47.2513 35.0995 49.5188 35.4774C52.3532 35.9498 56.7524 38.3114 57.9336 36.0087Z" fill="#333333" fill-opacity="0.2"/>
<path d="M46.2034 27.8262C47.735 28.2828 48.768 29.8992 49.0458 31.3097L49.7083 30.35L50.841 29.8992C49.7083 29.3222 49.0707 28.5387 48.1482 26.9072C46.6946 24.3363 50.1515 20.6302 52.2088 22.1217L51.1188 20.603L46.4812 22.1217L43.4892 21.2671L42.9549 22.4001L43.361 25.8836L42.11 28.2986C42.071 28.9896 41.9932 30.8461 41.9932 32.7442C42.4847 30.8635 44.2587 27.2464 46.2034 27.8262Z" fill="#333333" fill-opacity="0.2"/>
<path d="M24.9932 37.0011C27.3195 42.2004 34.1508 43.6299 37.2757 43.6947C39.9238 43.6947 41.3001 41.0984 41.6573 39.8003C41.0058 39.0711 39.5849 36.9966 39.113 34.5324C38.6411 32.0681 40.6849 29.6089 41.7657 28.6873C41.8627 27.4399 41.6397 25.2551 40.751 23.5259C40.3757 22.7956 38.9091 22.1394 38.6634 21.4383C38.4307 20.774 39.7072 19.8726 39.7072 18.3069C39.7072 15.6974 38.2569 14.3954 45.3912 13.6192C47.5651 13.2815 49.6078 14.7588 50.3575 15.5397C50.9509 16.6799 52.1097 19.3069 51.9973 20.6937C51.2851 20.6937 49.9826 20.9124 49.4204 21.0217L47.2184 22.0524L43.6108 21.3965L42.9549 22.521L43.236 26.0817L41.7657 28.6873L42.1971 29.0502L41.2233 34.2761L42.881 38.0572L41.6573 39.8003L42.59 39.4802C44.9541 39.9909 49.6575 41.0074 49.5587 40.9877C49.4599 40.9679 46.5015 42.7841 45.0347 43.6947V48.6067L45.7978 55.1969C46.6071 57.0468 48.5726 61.3709 49.96 63.8682C46.0752 61.9259 41.913 57.278 40.3175 55.1969C40.5256 55.775 40.9418 57.4168 40.9418 59.3592C37.3346 56.4733 34.9528 52.2371 34.2129 50.4797L33.6579 53.8789C31.1496 52.4527 25.905 47.0805 24.9932 37.0011Z" fill="#333333" fill-opacity="0.2"/>
<path fill-rule="evenodd" clip-rule="evenodd" d="M26.8101 81.4559C26.4611 81.4559 26.1352 81.2814 25.9417 80.9911C23.14 76.7886 17.7871 63.5065 17.7871 43.0094C17.7871 30.1153 21.2031 22.3188 25.9633 17.757C30.7139 13.2044 36.6268 12.0435 41.2725 12.0435C45.89 12.0435 48.8444 13.0828 50.6262 14.8776C52.3095 16.5731 52.7587 18.7548 52.8055 20.7595C53.9236 22.2125 54.3837 23.6652 54.8169 25.033C54.8551 25.1537 54.8932 25.2738 54.9314 25.3931C55.4303 26.9496 55.9986 28.5297 57.5341 30.3723C58.1124 31.0662 58.847 31.7734 59.649 32.5361C59.6918 32.5768 59.7347 32.6176 59.7779 32.6586C60.5251 33.3688 61.3207 34.1249 62.0042 34.9016C63.4069 36.4956 64.6863 38.5701 63.6761 40.9271C63.4147 41.537 62.9414 42.035 62.3027 42.2977C61.8575 42.4808 61.3731 42.5334 60.8805 42.4681C60.1856 43.0181 59.3762 43.2402 58.5338 43.229C57.5476 43.216 56.5217 42.886 55.5431 42.4672C54.6026 42.0647 53.6063 41.9214 52.5097 41.8705C52.0081 41.8472 51.5026 41.8436 50.9718 41.8399C50.9194 41.8395 50.8667 41.8391 50.8138 41.8387C50.4492 41.836 50.0736 41.8323 49.6928 41.8203C49.4104 42.2276 49.011 42.6186 48.5161 42.9741C47.8425 43.458 46.9447 43.9121 45.7868 44.2851C45.7837 44.6489 45.7791 45.0128 45.7745 45.3771C45.7125 50.2343 45.6497 55.1619 49.3034 60.8845C51.8775 64.9163 55.6957 67.9381 59.4421 70.8316C59.5877 70.9441 59.7333 71.0564 59.879 71.1688C63.3959 73.8817 66.893 76.5794 68.6951 79.916C68.8698 80.2395 68.8615 80.631 68.6732 80.9467C68.4849 81.2625 68.1444 81.4559 67.7767 81.4559H26.8101ZM44.7466 43.5022C47.6383 42.7367 48.839 41.5173 49.0784 40.7469C49.7123 40.7872 50.3477 40.7917 50.9815 40.7961C52.6697 40.808 54.3468 40.8198 55.9537 41.5076C57.8292 42.3103 59.4557 42.5718 60.5725 41.3289C61.5915 41.6686 62.3937 41.2696 62.7167 40.5159C63.8202 37.9411 61.3969 35.6376 59.0484 33.4054C58.2128 32.6111 57.3867 31.8258 56.7323 31.0405C54.9506 28.9025 54.3684 27.0694 53.8279 25.368C53.3599 23.8945 52.9232 22.5197 51.766 21.131C51.766 17.1413 50.2492 13.0873 41.2725 13.0873C32.2959 13.0873 18.8309 17.5756 18.8309 43.0094C18.8309 63.3564 24.1504 76.4224 26.8101 80.4121H67.7767C67.5851 80.0573 67.3725 79.7098 67.1409 79.3683C65.3249 76.6908 62.3401 74.387 59.1475 71.9228C55.3193 68.9681 51.1924 65.7828 48.4236 61.4462C44.5941 55.4481 44.6644 50.2178 44.7299 45.3551C44.7383 44.7317 44.7466 44.1143 44.7466 43.5022Z" fill="#333333"/>
</g>
</g>
<defs>
<filter id="filter0_d_692_2401" x="6.74316" y="1" width="73.1211" height="91.5" filterUnits="userSpaceOnUse" color-interpolation-filters="sRGB">
<feFlood flood-opacity="0" result="BackgroundImageFix"/>
<feColorMatrix in="SourceAlpha" type="matrix" values="0 0 0 0 0 0 0 0 0 0 0 0 0 0 0 0 0 0 127 0" result="hardAlpha"/>
<feOffset/>
<feGaussianBlur stdDeviation="5"/>
<feComposite in2="hardAlpha" operator="out"/>
<feColorMatrix type="matrix" values="0 0 0 0 0.964706 0 0 0 0 0.509804 0 0 0 0 0.129412 0 0 0 1 0"/>
<feBlend mode="normal" in2="BackgroundImageFix" result="effect1_dropShadow_692_2401"/>
<feBlend mode="normal" in="SourceGraphic" in2="effect1_dropShadow_692_2401" result="shape"/>
</filter>
<clipPath id="clip0_692_2401">
<rect width="80" height="80" fill="white"/>
</clipPath>
</defs>
</svg>
