<svg width="21" height="21" viewBox="0 0 21 21" fill="none" xmlns="http://www.w3.org/2000/svg">
<path d="M19 10.4999C18.7348 10.4999 18.4804 10.6053 18.2929 10.7928C18.1054 10.9804 18 11.2347 18 11.4999V17.4999C18 17.7652 17.8946 18.0195 17.7071 18.207C17.5196 18.3946 17.2652 18.4999 17 18.4999H3C2.73478 18.4999 2.48043 18.3946 2.29289 18.207C2.10536 18.0195 2 17.7652 2 17.4999V3.49994C2 3.23472 2.10536 2.98037 2.29289 2.79283C2.48043 2.6053 2.73478 2.49994 3 2.49994H9C9.26522 2.49994 9.51957 2.39458 9.70711 2.20705C9.89464 2.01951 10 1.76516 10 1.49994C10 1.23472 9.89464 0.980368 9.70711 0.792832C9.51957 0.605296 9.26522 0.499939 9 0.499939H3C2.20435 0.499939 1.44129 0.81601 0.87868 1.37862C0.316071 1.94123 0 2.70429 0 3.49994V17.4999C0 18.2956 0.316071 19.0587 0.87868 19.6213C1.44129 20.1839 2.20435 20.4999 3 20.4999H17C17.7956 20.4999 18.5587 20.1839 19.1213 19.6213C19.6839 19.0587 20 18.2956 20 17.4999V11.4999C20 11.2347 19.8946 10.9804 19.7071 10.7928C19.5196 10.6053 19.2652 10.4999 19 10.4999ZM4 11.2599V15.4999C4 15.7652 4.10536 16.0195 4.29289 16.207C4.48043 16.3946 4.73478 16.4999 5 16.4999H9.24C9.37161 16.5007 9.50207 16.4755 9.62391 16.4257C9.74574 16.3759 9.85656 16.3026 9.95 16.2099L16.87 9.27994L19.71 6.49994C19.8037 6.40698 19.8781 6.29637 19.9289 6.17452C19.9797 6.05266 20.0058 5.92195 20.0058 5.78994C20.0058 5.65793 19.9797 5.52722 19.9289 5.40536C19.8781 5.2835 19.8037 5.1729 19.71 5.07994L15.47 0.789939C15.377 0.696211 15.2664 0.621816 15.1446 0.571048C15.0227 0.520279 14.892 0.494141 14.76 0.494141C14.628 0.494141 14.4973 0.520279 14.3754 0.571048C14.2536 0.621816 14.143 0.696211 14.05 0.789939L11.23 3.61994L4.29 10.5499C4.19732 10.6434 4.12399 10.7542 4.07423 10.876C4.02446 10.9979 3.99924 11.1283 4 11.2599ZM14.76 2.90994L17.59 5.73994L16.17 7.15994L13.34 4.32994L14.76 2.90994ZM6 11.6699L11.93 5.73994L14.76 8.56994L8.83 14.4999H6V11.6699Z" fill="white"/>
</svg>
