<svg width="16" height="21" viewBox="0 0 16 21" fill="none" xmlns="http://www.w3.org/2000/svg">
<path d="M8 11.4999C7.73478 11.4999 7.48043 11.6053 7.29289 11.7928C7.10536 11.9803 7 12.2347 7 12.4999V15.4999C7 15.7651 7.10536 16.0195 7.29289 16.207C7.48043 16.3946 7.73478 16.4999 8 16.4999C8.26522 16.4999 8.51957 16.3946 8.70711 16.207C8.89464 16.0195 9 15.7651 9 15.4999V12.4999C9 12.2347 8.89464 11.9803 8.70711 11.7928C8.51957 11.6053 8.26522 11.4999 8 11.4999ZM13 7.49992H5V5.49992C4.99854 4.90611 5.17334 4.32522 5.50226 3.83082C5.83118 3.33643 6.29942 2.95077 6.84768 2.72268C7.39594 2.49459 7.99956 2.43435 8.58209 2.54957C9.16462 2.66479 9.69985 2.95029 10.12 3.36992C10.4959 3.75399 10.7649 4.22975 10.9 4.74992C10.9328 4.8773 10.9904 4.99697 11.0695 5.10209C11.1486 5.20721 11.2476 5.29573 11.3609 5.36259C11.4742 5.42945 11.5995 5.47334 11.7298 5.49175C11.86 5.51017 11.9926 5.50275 12.12 5.46992C12.2474 5.43709 12.3671 5.37949 12.4722 5.30041C12.5773 5.22133 12.6658 5.12232 12.7327 5.00904C12.7995 4.89575 12.8434 4.7704 12.8618 4.64015C12.8802 4.5099 12.8728 4.3773 12.84 4.24992C12.6122 3.38472 12.1603 2.59486 11.53 1.95992C10.8302 1.26229 9.93934 0.787656 8.96996 0.595963C8.00058 0.40427 6.99614 0.50411 6.08346 0.882876C5.17078 1.26164 4.3908 1.90235 3.84201 2.72409C3.29321 3.54584 3.00021 4.51177 3 5.49992V7.49992C2.20435 7.49992 1.44129 7.81599 0.87868 8.3786C0.316071 8.94121 0 9.70427 0 10.4999V17.4999C0 18.2956 0.316071 19.0586 0.87868 19.6212C1.44129 20.1838 2.20435 20.4999 3 20.4999H13C13.7956 20.4999 14.5587 20.1838 15.1213 19.6212C15.6839 19.0586 16 18.2956 16 17.4999V10.4999C16 9.70427 15.6839 8.94121 15.1213 8.3786C14.5587 7.81599 13.7956 7.49992 13 7.49992ZM14 17.4999C14 17.7651 13.8946 18.0195 13.7071 18.207C13.5196 18.3946 13.2652 18.4999 13 18.4999H3C2.73478 18.4999 2.48043 18.3946 2.29289 18.207C2.10536 18.0195 2 17.7651 2 17.4999V10.4999C2 10.2347 2.10536 9.98035 2.29289 9.79281C2.48043 9.60528 2.73478 9.49992 3 9.49992H13C13.2652 9.49992 13.5196 9.60528 13.7071 9.79281C13.8946 9.98035 14 10.2347 14 10.4999V17.4999Z" fill="#A3A3A3"/>
</svg>
