<svg width="20" height="21" viewBox="0 0 20 21" fill="none" xmlns="http://www.w3.org/2000/svg">
<path d="M10.0004 0.5C8.46652 0.499933 6.95315 0.852741 5.5774 1.53113C4.20165 2.20952 3.0004 3.19531 2.06659 4.41222C1.13278 5.62914 0.491429 7.04457 0.192164 8.54901C-0.107101 10.0535 -0.0562612 11.6066 0.340751 13.0882C0.737763 14.5699 1.4703 15.9403 2.4817 17.0936C3.4931 18.2468 4.75625 19.1519 6.17342 19.7389C7.59059 20.3259 9.12379 20.5789 10.6544 20.4786C12.185 20.3782 13.6721 19.927 15.0004 19.16C15.1199 19.0975 15.2256 19.0114 15.311 18.907C15.3963 18.8027 15.4597 18.6821 15.4973 18.5525C15.5349 18.423 15.5459 18.2872 15.5296 18.1533C15.5134 18.0194 15.4702 17.8902 15.4027 17.7735C15.3352 17.6567 15.2448 17.5548 15.1369 17.4739C15.029 17.393 14.9058 17.3347 14.7748 17.3026C14.6438 17.2705 14.5077 17.2653 14.3746 17.2872C14.2415 17.3091 14.1143 17.3576 14.0004 17.43C12.4754 18.3105 10.7024 18.6632 8.95645 18.4334C7.21051 18.2036 5.58919 17.4041 4.3439 16.159C3.09862 14.9138 2.29897 13.2926 2.06897 11.5467C1.83897 9.80076 2.19146 8.02774 3.07179 6.50257C3.95212 4.97741 5.31108 3.78532 6.93794 3.11119C8.56479 2.43706 10.3686 2.31855 12.0697 2.77404C13.7708 3.22953 15.274 4.23358 16.3463 5.63046C17.4186 7.02734 18 8.739 18.0004 10.5V11.25C18.0004 11.7141 17.8161 12.1592 17.4879 12.4874C17.1597 12.8156 16.7146 13 16.2504 13C15.7863 13 15.3412 12.8156 15.013 12.4874C14.6848 12.1592 14.5004 11.7141 14.5004 11.25V7C14.5004 6.73478 14.3951 6.48043 14.2075 6.29289C14.02 6.10536 13.7657 6 13.5004 6C13.2679 5.99483 13.0408 6.07088 12.8583 6.21507C12.6758 6.35926 12.5492 6.56257 12.5004 6.79C11.7654 6.28158 10.8942 6.0063 10.0004 6C9.24761 5.991 8.50455 6.17102 7.83931 6.5236C7.17408 6.87617 6.60794 7.39001 6.19275 8.01807C5.77755 8.64612 5.52657 9.36831 5.4628 10.1185C5.39902 10.8687 5.52449 11.6229 5.82771 12.312C6.13093 13.0011 6.6022 13.6032 7.19837 14.063C7.79454 14.5228 8.49655 14.8257 9.2401 14.9439C9.98365 15.0621 10.745 14.9918 11.4543 14.7396C12.1637 14.4873 12.7985 14.0611 13.3004 13.5C13.7756 14.1153 14.4307 14.5673 15.1746 14.793C15.9185 15.0188 16.7143 15.0071 17.4512 14.7596C18.1882 14.5121 18.8297 14.0411 19.2866 13.4121C19.7435 12.7831 19.993 12.0274 20.0004 11.25V10.5C20.0004 9.18678 19.7418 7.88642 19.2392 6.67317C18.7367 5.45991 18.0001 4.35752 17.0715 3.42893C16.1429 2.50035 15.0405 1.76375 13.8273 1.2612C12.614 0.758658 11.3137 0.5 10.0004 0.5ZM10.0004 13C9.50599 13 9.02264 12.8534 8.61151 12.5787C8.20039 12.304 7.87996 11.9135 7.69074 11.4567C7.50152 10.9999 7.45201 10.4972 7.54848 10.0123C7.64494 9.52732 7.88304 9.08186 8.23267 8.73223C8.5823 8.3826 9.02776 8.1445 9.51271 8.04804C9.99767 7.95157 10.5003 8.00108 10.9571 8.1903C11.414 8.37952 11.8044 8.69995 12.0791 9.11107C12.3538 9.5222 12.5004 10.0055 12.5004 10.5C12.5004 11.163 12.237 11.7989 11.7682 12.2678C11.2994 12.7366 10.6635 13 10.0004 13Z" fill="#A3A3A3"/>
</svg>
