<svg width="15" height="11" viewBox="0 0 15 11" fill="none" xmlns="http://www.w3.org/2000/svg">
<path d="M14.2104 0.710105C14.1175 0.616377 14.0069 0.541982 13.885 0.491213C13.7632 0.440445 13.6324 0.414307 13.5004 0.414307C13.3684 0.414307 13.2377 0.440445 13.1159 0.491213C12.994 0.541982 12.8834 0.616377 12.7904 0.710105L5.34044 8.1701L2.21044 5.0301C2.11392 4.93687 1.99998 4.86355 1.87512 4.81435C1.75026 4.76514 1.61694 4.74101 1.48276 4.74334C1.34858 4.74566 1.21617 4.77438 1.09309 4.82788C0.970013 4.88137 0.858676 4.95858 0.765438 5.05511C0.672199 5.15163 0.598885 5.26557 0.549682 5.39042C0.500478 5.51528 0.476347 5.6486 0.478669 5.78278C0.48099 5.91696 0.509718 6.04937 0.563211 6.17245C0.616705 6.29553 0.693916 6.40687 0.790438 6.5001L4.63044 10.3401C4.7234 10.4338 4.834 10.5082 4.95586 10.559C5.07772 10.6098 5.20843 10.6359 5.34044 10.6359C5.47245 10.6359 5.60316 10.6098 5.72502 10.559C5.84687 10.5082 5.95748 10.4338 6.05044 10.3401L14.2104 2.18011C14.3119 2.08646 14.393 1.97281 14.4484 1.84631C14.5038 1.71981 14.5324 1.58321 14.5324 1.44511C14.5324 1.307 14.5038 1.1704 14.4484 1.0439C14.393 0.917399 14.3119 0.803747 14.2104 0.710105Z" fill="white"/>
</svg>
