<svg width="21" height="18" viewBox="0 0 21 18" fill="none" xmlns="http://www.w3.org/2000/svg">
<path d="M15.25 8H14.25C13.9848 8 13.7304 8.10536 13.5429 8.29289C13.3554 8.48043 13.25 8.73478 13.25 9C13.25 9.26522 13.3554 9.51957 13.5429 9.70711C13.7304 9.89464 13.9848 10 14.25 10H15.25C15.5152 10 15.7696 9.89464 15.9571 9.70711C16.1446 9.51957 16.25 9.26522 16.25 9C16.25 8.73478 16.1446 8.48043 15.9571 8.29289C15.7696 8.10536 15.5152 8 15.25 8ZM15.25 12H14.25C13.9848 12 13.7304 12.1054 13.5429 12.2929C13.3554 12.4804 13.25 12.7348 13.25 13C13.25 13.2652 13.3554 13.5196 13.5429 13.7071C13.7304 13.8946 13.9848 14 14.25 14H15.25C15.5152 14 15.7696 13.8946 15.9571 13.7071C16.1446 13.5196 16.25 13.2652 16.25 13C16.25 12.7348 16.1446 12.4804 15.9571 12.2929C15.7696 12.1054 15.5152 12 15.25 12ZM9.25 6H15.25C15.5152 6 15.7696 5.89464 15.9571 5.70711C16.1446 5.51957 16.25 5.26522 16.25 5C16.25 4.73478 16.1446 4.48043 15.9571 4.29289C15.7696 4.10536 15.5152 4 15.25 4H9.25C8.98478 4 8.73043 4.10536 8.54289 4.29289C8.35536 4.48043 8.25 4.73478 8.25 5C8.25 5.26522 8.35536 5.51957 8.54289 5.70711C8.73043 5.89464 8.98478 6 9.25 6ZM19.25 0H5.25C4.98478 0 4.73043 0.105357 4.54289 0.292893C4.35536 0.48043 4.25 0.734784 4.25 1V4H1.25C0.984784 4 0.73043 4.10536 0.542893 4.29289C0.355357 4.48043 0.25 4.73478 0.25 5V15C0.25 15.7956 0.566071 16.5587 1.12868 17.1213C1.69129 17.6839 2.45435 18 3.25 18H16.25C17.3109 18 18.3283 17.5786 19.0784 16.8284C19.8286 16.0783 20.25 15.0609 20.25 14V1C20.25 0.734784 20.1446 0.48043 19.9571 0.292893C19.7696 0.105357 19.5152 0 19.25 0ZM4.25 15C4.25 15.2652 4.14464 15.5196 3.95711 15.7071C3.76957 15.8946 3.51522 16 3.25 16C2.98478 16 2.73043 15.8946 2.54289 15.7071C2.35536 15.5196 2.25 15.2652 2.25 15V6H4.25V15ZM18.25 14C18.25 14.5304 18.0393 15.0391 17.6642 15.4142C17.2891 15.7893 16.7804 16 16.25 16H6.07C6.18642 15.6793 6.2473 15.3411 6.25 15V2H18.25V14ZM9.25 10H10.25C10.5152 10 10.7696 9.89464 10.9571 9.70711C11.1446 9.51957 11.25 9.26522 11.25 9C11.25 8.73478 11.1446 8.48043 10.9571 8.29289C10.7696 8.10536 10.5152 8 10.25 8H9.25C8.98478 8 8.73043 8.10536 8.54289 8.29289C8.35536 8.48043 8.25 8.73478 8.25 9C8.25 9.26522 8.35536 9.51957 8.54289 9.70711C8.73043 9.89464 8.98478 10 9.25 10ZM9.25 14H10.25C10.5152 14 10.7696 13.8946 10.9571 13.7071C11.1446 13.5196 11.25 13.2652 11.25 13C11.25 12.7348 11.1446 12.4804 10.9571 12.2929C10.7696 12.1054 10.5152 12 10.25 12H9.25C8.98478 12 8.73043 12.1054 8.54289 12.2929C8.35536 12.4804 8.25 12.7348 8.25 13C8.25 13.2652 8.35536 13.5196 8.54289 13.7071C8.73043 13.8946 8.98478 14 9.25 14Z" fill="white"/>
</svg>
