<svg width="19" height="21" viewBox="0 0 19 21" fill="none" xmlns="http://www.w3.org/2000/svg">
<path d="M17.4798 6.32578L11.4869 0.853161C10.9376 0.34132 10.2264 0.0583496 9.48934 0.0583496C8.75229 0.0583496 8.04109 0.34132 7.49173 0.853161L1.4989 6.32578C1.18165 6.62134 0.928482 6.98391 0.75626 7.38934C0.584038 7.79478 0.496711 8.23379 0.500095 8.67713V17.7704C0.500095 18.5982 0.815788 19.3921 1.37772 19.9775C1.93966 20.5628 2.70181 20.8917 3.49651 20.8917H15.4822C16.2769 20.8917 17.039 20.5628 17.601 19.9775C18.1629 19.3921 18.4786 18.5982 18.4786 17.7704V8.66673C18.4805 8.22513 18.3925 7.78813 18.2204 7.3846C18.0482 6.98106 17.7958 6.62017 17.4798 6.32578V6.32578ZM11.4869 18.8108H7.49173V13.6087C7.49173 13.3328 7.59696 13.0682 7.78427 12.873C7.97158 12.6779 8.22563 12.5683 8.49053 12.5683H10.4881C10.753 12.5683 11.0071 12.6779 11.1944 12.873C11.3817 13.0682 11.4869 13.3328 11.4869 13.6087V18.8108ZM16.481 17.7704C16.481 18.0464 16.3757 18.311 16.1884 18.5061C16.0011 18.7012 15.7471 18.8108 15.4822 18.8108H13.4846V13.6087C13.4846 12.7809 13.1689 11.987 12.6069 11.4017C12.045 10.8163 11.2828 10.4875 10.4881 10.4875H8.49053C7.69583 10.4875 6.93368 10.8163 6.37175 11.4017C5.80981 11.987 5.49412 12.7809 5.49412 13.6087V18.8108H3.49651C3.23161 18.8108 2.97756 18.7012 2.79025 18.5061C2.60294 18.311 2.4977 18.0464 2.4977 17.7704V8.66673C2.49788 8.519 2.52826 8.37301 2.58682 8.23847C2.64537 8.10392 2.73076 7.98391 2.8373 7.88641L8.83013 2.4242C9.0124 2.2574 9.24672 2.16541 9.48934 2.16541C9.73196 2.16541 9.96628 2.2574 10.1485 2.4242L16.1414 7.88641C16.2479 7.98391 16.3333 8.10392 16.3919 8.23847C16.4504 8.37301 16.4808 8.519 16.481 8.66673V17.7704Z" fill="white"/>
</svg>
