<svg width="20" height="21" viewBox="0 0 20 21" fill="none" xmlns="http://www.w3.org/2000/svg">
<path d="M17 3.72903H10.72L10.4 2.68736C10.1926 2.07614 9.80775 1.54726 9.2989 1.17399C8.79005 0.800713 8.18236 0.601528 7.56 0.604027H3C2.20435 0.604027 1.44129 0.933267 0.87868 1.51932C0.316071 2.10537 0 2.90023 0 3.72903V17.2707C0 18.0995 0.316071 18.8944 0.87868 19.4804C1.44129 20.0665 2.20435 20.3957 3 20.3957H17C17.7956 20.3957 18.5587 20.0665 19.1213 19.4804C19.6839 18.8944 20 18.0995 20 17.2707V6.85403C20 6.02523 19.6839 5.23037 19.1213 4.64432C18.5587 4.05827 17.7956 3.72903 17 3.72903ZM18 17.2707C18 17.547 17.8946 17.8119 17.7071 18.0073C17.5196 18.2026 17.2652 18.3124 17 18.3124H3C2.73478 18.3124 2.48043 18.2026 2.29289 18.0073C2.10536 17.8119 2 17.547 2 17.2707V3.72903C2 3.45276 2.10536 3.18781 2.29289 2.99246C2.48043 2.79711 2.73478 2.68736 3 2.68736H7.56C7.76964 2.6868 7.97416 2.75488 8.14463 2.88199C8.3151 3.00909 8.44291 3.1888 8.51 3.39569L9.05 5.10403C9.11709 5.31092 9.2449 5.49063 9.41537 5.61773C9.58584 5.74484 9.79036 5.81292 10 5.81236H17C17.2652 5.81236 17.5196 5.92211 17.7071 6.11746C17.8946 6.31281 18 6.57776 18 6.85403V17.2707Z" fill="white"/>
</svg>
